<svg xmlns="http://www.w3.org/2000/svg" viewBox="0 0 181.49 134.6"><defs><style>.cls-1{fill:#e4cc00;}.cls-2{fill:#00b3ab;}</style></defs><title>Fichier 2</title><g id="Calque_2" data-name="Calque 2"><g id="Calque_1-2" data-name="Calque 1"><path class="cls-1" d="M108.64,86.31c-.1.2-.19.41-.29.65-.87,2-2,5.32-3.24,8.32H72.69c-1.4-3.35-2.62-7-3.51-9-.2-.47-.38-.93-.53-1.4-3.16-9.81,4.49-21,14.89-21.34h9.35c7.11.6,13.46,3.23,16.09,11.32A16.28,16.28,0,0,1,108.64,86.31Z"/><path class="cls-2" d="M135.63,59.33a48.12,48.12,0,0,1-22.19,25.26,19.85,19.85,0,0,1-1,3.26l0,.09,0,.09c-.4.87-1,2.33-1.53,3.88s-1.23,3.28-1.93,4.94a33.33,33.33,0,0,1-2.87,5.64c1.48,6.89,3.14,17.42,4.83,29.92a92.4,92.4,0,0,0,70.65-73.08ZM67,91.89c-.57-1.55-1.12-3-1.52-3.86l0-.09a18.83,18.83,0,0,1-1.49-5.83A48.07,48.07,0,0,1,45.86,59.33H0A92.42,92.42,0,0,0,67.31,131.6c1.68-11.8,3.27-21.95,4.55-29a31.66,31.66,0,0,1-2.94-5.75C68.22,95.18,67.57,93.43,67,91.89Zm38.12,3.39c1.26-3,2.37-6.28,3.24-8.32a48.12,48.12,0,0,1-39.7-2c.15.47.33.93.53,1.4.89,1.92,2.11,5.62,3.51,9,1.1,2.63,2.3,5,3.54,6.19-1.31,6.91-3,17.9-4.92,31.08a93.23,93.23,0,0,0,35.54.65c-1.87-13.69-3.68-25-5.26-31.73C102.81,100.3,104,97.89,105.11,95.28Z"/><circle class="cls-2" cx="88.45" cy="26.81" r="26.81"/></g></g></svg>