<svg xmlns="http://www.w3.org/2000/svg" viewBox="0 0 641 423.61"><defs><style>.cls-1{fill:#044460;}.cls-2{fill:#e4cc00;}.cls-3{fill:#00b3ab;}.cls-4{font-size:42px;font-family:Gilroy-Medium;font-weight:500;}.cls-14,.cls-4{letter-spacing:-0.03em;}.cls-5{letter-spacing:-0.03em;}.cls-6{letter-spacing:-0.03em;}.cls-7{letter-spacing:-0.04em;}.cls-8{letter-spacing:-0.06em;}.cls-9{letter-spacing:-0.04em;}.cls-10{letter-spacing:-0.1em;}.cls-11{letter-spacing:-0.06em;}.cls-12{letter-spacing:-0.04em;}.cls-13{letter-spacing:-0.03em;}.cls-15{letter-spacing:-0.05em;}.cls-16{letter-spacing:-0.06em;}</style></defs><title>Fichier 5</title><g id="Calque_2" data-name="Calque 2"><g id="Calque_1-2" data-name="Calque 1"><path class="cls-1" d="M184.79,108.11V283.44H141v-9.66a91.32,91.32,0,1,1,0-156v-9.65ZM141,195.77a47.49,47.49,0,1,0-47.48,47.49A47.48,47.48,0,0,0,141,195.77Z"/><path class="cls-1" d="M333.64,214h45.64a91.33,91.33,0,1,1,0-36.53H333.64a47.49,47.49,0,1,0,0,36.53Z"/><path class="cls-1" d="M639.08,214H505.76a47.49,47.49,0,0,0,78.1,14.61h50.95A91.14,91.14,0,1,1,639.08,214Zm-45.64-36.53a47.5,47.5,0,0,0-87.68,0Z"/><path class="cls-2" d="M438.51,86.31c-.09.2-.19.41-.29.65-.86,2-2,5.32-3.24,8.32H402.57c-1.4-3.35-2.63-7-3.52-9-.2-.47-.37-.93-.53-1.4-3.15-9.81,4.49-21,14.89-21.34h9.36c7.11.6,13.45,3.23,16.08,11.32A16.28,16.28,0,0,1,438.51,86.31Z"/><g id="Layer_30" data-name="Layer 30"><path class="cls-3" d="M419.85,286.85c-.18,2.14-30.57-14.69-31.29-14.58-3.27-12,5.67-90.87,12.62-139.72,0-.3.09-.6.13-.89,1.58-11,3.05-20.49,4.24-27.21.19-1.06.37-2.06.55-3-1.23-1.15-2.44-3.56-3.53-6.19-1.4-3.35-2.63-7-3.52-9-.2-.47-.37-.93-.53-1.4-3.15-9.81,4.49-21,14.89-21.34h1a56.9,56.9,0,0,1,8.36,0c7.11.6,13.45,3.23,16.08,11.32a16.28,16.28,0,0,1-.34,11.42c-.09.2-.19.41-.29.65-.86,2-2,5.32-3.24,8.32-1.09,2.61-2.29,5-3.52,6.19.22.91.44,1.91.66,3,1.35,6.55,2.85,16,4.39,27.21l.21,1.54c6.56,48.19,13.74,125.87,13.64,136.74C452.24,272.57,420.68,285.62,419.85,286.85Z"/><path class="cls-3" d="M419.85,286.85c-.18,2.14-30.57-14.69-31.29-14.58-3.27-12,5.67-90.87,12.62-139.72,0-.3.09-.6.13-.89,1.58-11,3.05-20.49,4.24-27.21.19-1.06.37-2.06.55-3-1.23-1.15-2.44-3.56-3.53-6.19-1.4-3.35-2.63-7-3.52-9-.2-.47-.37-.93-.53-1.4-3.15-9.81,4.49-21,14.89-21.34h1a56.9,56.9,0,0,1,8.36,0c7.11.6,13.45,3.23,16.08,11.32a16.28,16.28,0,0,1-.34,11.42c-.09.2-.19.41-.29.65-.86,2-2,5.32-3.24,8.32-1.09,2.61-2.29,5-3.52,6.19.22.91.44,1.91.66,3,1.35,6.55,2.85,16,4.39,27.21l.21,1.54c6.56,48.19,13.74,125.87,13.64,136.74C452.24,272.57,420.68,285.62,419.85,286.85Z"/><path class="cls-3" d="M419.85,286.85c-.18,2.14-30.57-14.69-31.29-14.58-3.27-12,5.67-90.87,12.62-139.72,0-.3.09-.6.13-.89,1.58-11,3.05-20.49,4.24-27.21.19-1.06.37-2.06.55-3-1.23-1.15-2.44-3.56-3.53-6.19-1.4-3.35-2.63-7-3.52-9-.2-.47-.37-.93-.53-1.4-3.15-9.81,4.49-21,14.89-21.34h1a56.9,56.9,0,0,1,8.36,0c7.11.6,13.45,3.23,16.08,11.32a16.28,16.28,0,0,1-.34,11.42c-.09.2-.19.41-.29.65-.86,2-2,5.32-3.24,8.32-1.09,2.61-2.29,5-3.52,6.19.22.91.44,1.91.66,3,1.35,6.55,2.85,16,4.39,27.21l.21,1.54c6.56,48.19,13.74,125.87,13.64,136.74C452.24,272.57,420.68,285.62,419.85,286.85Z"/><path class="cls-3" d="M419.85,286.85c-.18,2.14-30.57-14.69-31.29-14.58-3.27-12,5.67-90.87,12.62-139.72,0-.3.09-.6.13-.89,1.58-11,3.05-20.49,4.24-27.21.19-1.06.37-2.06.55-3-1.23-1.15-2.44-3.56-3.53-6.19-1.4-3.35-2.63-7-3.52-9-.2-.47-.37-.93-.53-1.4-3.15-9.81,4.49-21,14.89-21.34h1a56.9,56.9,0,0,1,8.36,0c7.11.6,13.45,3.23,16.08,11.32a16.28,16.28,0,0,1-.34,11.42c-.09.2-.19.41-.29.65-.86,2-2,5.32-3.24,8.32-1.09,2.61-2.29,5-3.52,6.19.22.91.44,1.91.66,3,1.35,6.55,2.85,16,4.39,27.21l.21,1.54c6.56,48.19,13.74,125.87,13.64,136.74C452.24,272.57,420.68,285.62,419.85,286.85Z"/><path class="cls-3" d="M419.85,286.85c-.18,2.14-30.57-14.69-31.29-14.58-3.27-12,5.67-90.87,12.62-139.72,0-.3.09-.6.13-.89,1.58-11,3.05-20.49,4.24-27.21.19-1.06.37-2.06.55-3-1.23-1.15-2.44-3.56-3.53-6.19-1.4-3.35-2.63-7-3.52-9-.2-.47-.37-.93-.53-1.4-3.15-9.81,4.49-21,14.89-21.34h1a56.9,56.9,0,0,1,8.36,0c7.11.6,13.45,3.23,16.08,11.32a16.28,16.28,0,0,1-.34,11.42c-.09.2-.19.41-.29.65-.86,2-2,5.32-3.24,8.32-1.09,2.61-2.29,5-3.52,6.19.22.91.44,1.91.66,3,1.35,6.55,2.85,16,4.39,27.21l.21,1.54c6.56,48.19,13.74,125.87,13.64,136.74C452.24,272.57,420.68,285.62,419.85,286.85Z"/><path class="cls-3" d="M419.85,286.85c-.18,2.14-30.57-14.69-31.29-14.58-3.27-12,5.67-90.87,12.62-139.72,0-.3.09-.6.13-.89,1.58-11,3.05-20.49,4.24-27.21.19-1.06.37-2.06.55-3-1.23-1.15-2.44-3.56-3.53-6.19-1.4-3.35-2.63-7-3.52-9-.2-.47-.37-.93-.53-1.4-3.15-9.81,4.49-21,14.89-21.34h1a56.9,56.9,0,0,1,8.36,0c7.11.6,13.45,3.23,16.08,11.32a16.28,16.28,0,0,1-.34,11.42c-.09.2-.19.41-.29.65-.86,2-2,5.32-3.24,8.32-1.09,2.61-2.29,5-3.52,6.19.22.91.44,1.91.66,3,1.35,6.55,2.85,16,4.39,27.21l.21,1.54c6.56,48.19,13.74,125.87,13.64,136.74C452.24,272.57,420.68,285.62,419.85,286.85Z"/><path class="cls-3" d="M419.85,286.85c-.18,2.14-30.57-14.69-31.29-14.58-3.27-12,5.67-90.87,12.62-139.72,0-.3.09-.6.13-.89,1.58-11,3.05-20.49,4.24-27.21.19-1.06.37-2.06.55-3-1.23-1.15-2.44-3.56-3.53-6.19-1.4-3.35-2.63-7-3.52-9-.2-.47-.37-.93-.53-1.4-3.15-9.81,4.49-21,14.89-21.34h1a56.9,56.9,0,0,1,8.36,0c7.11.6,13.45,3.23,16.08,11.32a16.28,16.28,0,0,1-.34,11.42c-.09.2-.19.41-.29.65-.86,2-2,5.32-3.24,8.32-1.09,2.61-2.29,5-3.52,6.19.22.91.44,1.91.66,3,1.35,6.55,2.85,16,4.39,27.21l.21,1.54c6.56,48.19,13.74,125.87,13.64,136.74C452.24,272.57,420.68,285.62,419.85,286.85Z"/><path class="cls-3" d="M419.85,286.85c-.18,2.14-30.57-14.69-31.29-14.58-3.27-12,5.67-90.87,12.62-139.72,0-.3.09-.6.13-.89,1.58-11,3.05-20.49,4.24-27.21.19-1.06.37-2.06.55-3-1.23-1.15-2.44-3.56-3.53-6.19-1.4-3.35-2.63-7-3.52-9-.2-.47-.37-.93-.53-1.4-3.15-9.81,4.49-21,14.89-21.34h1a56.9,56.9,0,0,1,8.36,0c7.11.6,13.45,3.23,16.08,11.32a16.28,16.28,0,0,1-.34,11.42c-.09.2-.19.41-.29.65-.86,2-2,5.32-3.24,8.32-1.09,2.61-2.29,5-3.52,6.19.22.91.44,1.91.66,3,1.35,6.55,2.85,16,4.39,27.21l.21,1.54c6.56,48.19,13.74,125.87,13.64,136.74C452.24,272.57,420.68,285.62,419.85,286.85Z"/></g><path class="cls-3" d="M465.5,59.33a48.14,48.14,0,0,1-22.18,25.26,19.89,19.89,0,0,1-1,3.26l0,.09,0,.09c-.41.87-1,2.33-1.54,3.88s-1.23,3.28-1.92,4.94a33.27,33.27,0,0,1-2.88,5.64c1.48,6.89,3.14,17.42,4.84,29.92a92.43,92.43,0,0,0,70.65-73.08ZM396.87,91.89c-.58-1.55-1.13-3-1.53-3.86l0-.09a18.85,18.85,0,0,1-1.5-5.83,48,48,0,0,1-18.07-22.78H329.87a92.45,92.45,0,0,0,67.32,72.27c1.68-11.8,3.26-21.95,4.55-29a31.6,31.6,0,0,1-2.95-5.75C398.09,95.18,397.44,93.43,396.87,91.89ZM435,95.28c1.26-3,2.38-6.28,3.24-8.32a48.12,48.12,0,0,1-39.7-2c.16.47.33.93.53,1.4.89,1.92,2.12,5.62,3.52,9,1.09,2.63,2.3,5,3.53,6.19-1.31,6.91-3,17.9-4.92,31.08a93.23,93.23,0,0,0,35.54.65c-1.86-13.69-3.68-25-5.26-31.73C432.69,100.3,433.89,97.89,435,95.28Z"/><circle class="cls-3" cx="418.33" cy="26.81" r="26.81"/><text class="cls-4" transform="translate(0 331.13)">Appui en <tspan class="cls-5" x="170.94" y="0">C</tspan><tspan class="cls-6" x="200.51" y="0">omp</tspan><tspan class="cls-7" x="284.25" y="0">é</tspan><tspan class="cls-8" x="306.85" y="0">t</tspan><tspan x="320.29" y="0">en</tspan><tspan class="cls-9" x="365.94" y="0">c</tspan><tspan class="cls-6" x="387.32" y="0">e </tspan><tspan class="cls-7" x="419.78" y="0">e</tspan><tspan x="442.38" y="0">t en</tspan><tspan class="cls-10"><tspan x="0" y="45">T</tspan><tspan class="cls-11" x="18.56" y="45">r</tspan><tspan class="cls-6" x="29.95" y="45">an</tspan><tspan class="cls-12" x="77.7" y="45">s</tspan><tspan class="cls-11" x="95.21" y="45">f</tspan><tspan class="cls-6" x="106.38" y="45">orma</tspan><tspan class="cls-13" x="202.65" y="45">t</tspan><tspan class="cls-14" x="217.14" y="45">ion pour l&apos;Empl</tspan><tspan class="cls-15" x="477.45" y="45">oy</tspan><tspan class="cls-14" x="520.16" y="45">abili</tspan><tspan class="cls-16" x="594.75" y="45">t</tspan><tspan class="cls-14" x="608.19" y="45">é</tspan></tspan></text></g></g></svg>