<svg id="Calque_1" data-name="Calque 1" xmlns="http://www.w3.org/2000/svg" viewBox="0 0 1361.54 290.54"><defs><style>.cls-1,.cls-4{fill:#fff;}.cls-2{fill:#e4cc00;}.cls-10,.cls-11,.cls-12,.cls-3,.cls-6,.cls-7,.cls-8,.cls-9{fill:#00b3ab;}.cls-4{opacity:0.5;}.cls-10,.cls-11,.cls-12,.cls-4,.cls-5,.cls-6,.cls-7,.cls-8,.cls-9{isolation:isolate;}.cls-10,.cls-11,.cls-12,.cls-6,.cls-7,.cls-8,.cls-9{font-size:59.12px;font-family:Gilroy-Light;font-weight:300;}.cls-6{letter-spacing:-0.03em;}.cls-7{letter-spacing:-0.03em;}.cls-8{letter-spacing:-0.04em;}.cls-9{letter-spacing:-0.06em;}.cls-10{letter-spacing:-0.1em;}.cls-11{letter-spacing:-0.06em;}.cls-12{letter-spacing:-0.07em;}.cls-13{letter-spacing:-0.05em;}</style></defs><title>Fichier 1 fond vert</title><path class="cls-1" d="M182.63,108.11V283.44H138.8v-9.66a91.32,91.32,0,1,1,0-156v-9.65ZM138.8,195.77a47.49,47.49,0,1,0-47.49,47.49h0a47.48,47.48,0,0,0,47.48-47.48Z" transform="translate(0.02)"/><path class="cls-1" d="M331.49,214h45.64a91.33,91.33,0,1,1,0-36.53H331.49a47.49,47.49,0,1,0,0,36.53Z" transform="translate(0.02)"/><path class="cls-1" d="M636.93,214H503.6a47.49,47.49,0,0,0,78.1,14.61h51A91.14,91.14,0,1,1,636.93,214Zm-45.64-36.53a47.51,47.51,0,0,0-87.69,0Z" transform="translate(0.02)"/><path class="cls-2" d="M436.36,86.31c-.09.2-.19.41-.29.65-.86,2-2,5.32-3.24,8.32H400.41c-1.39-3.35-2.62-7-3.51-9-.2-.47-.38-.93-.53-1.4-3.16-9.81,4.49-21,14.89-21.34h9.36c7.11.6,13.45,3.23,16.08,11.32A16.25,16.25,0,0,1,436.36,86.31Z" transform="translate(0.02)"/><g id="Layer_30" data-name="Layer 30"><path class="cls-3" d="M417.7,286.85c-.18,2.14-30.57-14.69-31.29-14.58-3.28-12,5.66-90.87,12.62-139.72a6.58,6.58,0,0,1,.13-.89c1.58-11,3-20.49,4.24-27.21.19-1.06.37-2.06.55-3-1.24-1.15-2.44-3.56-3.54-6.19-1.39-3.35-2.62-7-3.51-9-.2-.47-.38-.93-.53-1.4-3.16-9.81,4.49-21,14.89-21.34h1a58.32,58.32,0,0,1,8.36,0c7.11.6,13.45,3.23,16.08,11.32a16.28,16.28,0,0,1-.34,11.42c-.09.2-.19.41-.29.65-.86,2-2,5.32-3.24,8.32-1.09,2.61-2.29,5-3.52,6.19.22.91.43,1.91.66,3,1.35,6.55,2.85,16,4.39,27.21l.21,1.54c6.56,48.19,13.74,125.87,13.64,136.74C450.09,272.57,418.53,285.62,417.7,286.85Z" transform="translate(0.02)"/><path class="cls-3" d="M417.7,286.85c-.18,2.14-30.57-14.69-31.29-14.58-3.28-12,5.66-90.87,12.62-139.72a6.58,6.58,0,0,1,.13-.89c1.58-11,3-20.49,4.24-27.21.19-1.06.37-2.06.55-3-1.24-1.15-2.44-3.56-3.54-6.19-1.39-3.35-2.62-7-3.51-9-.2-.47-.38-.93-.53-1.4-3.16-9.81,4.49-21,14.89-21.34h1a58.32,58.32,0,0,1,8.36,0c7.11.6,13.45,3.23,16.08,11.32a16.28,16.28,0,0,1-.34,11.42c-.09.2-.19.41-.29.65-.86,2-2,5.32-3.24,8.32-1.09,2.61-2.29,5-3.52,6.19.22.91.43,1.91.66,3,1.35,6.55,2.85,16,4.39,27.21l.21,1.54c6.56,48.19,13.74,125.87,13.64,136.74C450.09,272.57,418.53,285.62,417.7,286.85Z" transform="translate(0.02)"/><path class="cls-3" d="M417.7,286.85c-.18,2.14-30.57-14.69-31.29-14.58-3.28-12,5.66-90.87,12.62-139.72a6.58,6.58,0,0,1,.13-.89c1.58-11,3-20.49,4.24-27.21.19-1.06.37-2.06.55-3-1.24-1.15-2.44-3.56-3.54-6.19-1.39-3.35-2.62-7-3.51-9-.2-.47-.38-.93-.53-1.4-3.16-9.81,4.49-21,14.89-21.34h1a58.32,58.32,0,0,1,8.36,0c7.11.6,13.45,3.23,16.08,11.32a16.28,16.28,0,0,1-.34,11.42c-.09.2-.19.41-.29.65-.86,2-2,5.32-3.24,8.32-1.09,2.61-2.29,5-3.52,6.19.22.91.43,1.91.66,3,1.35,6.55,2.85,16,4.39,27.21l.21,1.54c6.56,48.19,13.74,125.87,13.64,136.74C450.09,272.57,418.53,285.62,417.7,286.85Z" transform="translate(0.02)"/><path class="cls-3" d="M417.7,286.85c-.18,2.14-30.57-14.69-31.29-14.58-3.28-12,5.66-90.87,12.62-139.72a6.58,6.58,0,0,1,.13-.89c1.58-11,3-20.49,4.24-27.21.19-1.06.37-2.06.55-3-1.24-1.15-2.44-3.56-3.54-6.19-1.39-3.35-2.62-7-3.51-9-.2-.47-.38-.93-.53-1.4-3.16-9.81,4.49-21,14.89-21.34h1a58.32,58.32,0,0,1,8.36,0c7.11.6,13.45,3.23,16.08,11.32a16.28,16.28,0,0,1-.34,11.42c-.09.2-.19.41-.29.65-.86,2-2,5.32-3.24,8.32-1.09,2.61-2.29,5-3.52,6.19.22.91.43,1.91.66,3,1.35,6.55,2.85,16,4.39,27.21l.21,1.54c6.56,48.19,13.74,125.87,13.64,136.74C450.09,272.57,418.53,285.62,417.7,286.85Z" transform="translate(0.02)"/><path class="cls-3" d="M417.7,286.85c-.18,2.14-30.57-14.69-31.29-14.58-3.28-12,5.66-90.87,12.62-139.72a6.58,6.58,0,0,1,.13-.89c1.58-11,3-20.49,4.24-27.21.19-1.06.37-2.06.55-3-1.24-1.15-2.44-3.56-3.54-6.19-1.39-3.35-2.62-7-3.51-9-.2-.47-.38-.93-.53-1.4-3.16-9.81,4.49-21,14.89-21.34h1a58.32,58.32,0,0,1,8.36,0c7.11.6,13.45,3.23,16.08,11.32a16.28,16.28,0,0,1-.34,11.42c-.09.2-.19.41-.29.65-.86,2-2,5.32-3.24,8.32-1.09,2.61-2.29,5-3.52,6.19.22.91.43,1.91.66,3,1.35,6.55,2.85,16,4.39,27.21l.21,1.54c6.56,48.19,13.74,125.87,13.64,136.74C450.09,272.57,418.53,285.62,417.7,286.85Z" transform="translate(0.02)"/><path class="cls-3" d="M417.7,286.85c-.18,2.14-30.57-14.69-31.29-14.58-3.28-12,5.66-90.87,12.62-139.72a6.58,6.58,0,0,1,.13-.89c1.58-11,3-20.49,4.24-27.21.19-1.06.37-2.06.55-3-1.24-1.15-2.44-3.56-3.54-6.19-1.39-3.35-2.62-7-3.51-9-.2-.47-.38-.93-.53-1.4-3.16-9.81,4.49-21,14.89-21.34h1a58.32,58.32,0,0,1,8.36,0c7.11.6,13.45,3.23,16.08,11.32a16.28,16.28,0,0,1-.34,11.42c-.09.2-.19.41-.29.65-.86,2-2,5.32-3.24,8.32-1.09,2.61-2.29,5-3.52,6.19.22.91.43,1.91.66,3,1.35,6.55,2.85,16,4.39,27.21l.21,1.54c6.56,48.19,13.74,125.87,13.64,136.74C450.09,272.57,418.53,285.62,417.7,286.85Z" transform="translate(0.02)"/><path class="cls-3" d="M417.7,286.85c-.18,2.14-30.57-14.69-31.29-14.58-3.28-12,5.66-90.87,12.62-139.72a6.58,6.58,0,0,1,.13-.89c1.58-11,3-20.49,4.24-27.21.19-1.06.37-2.06.55-3-1.24-1.15-2.44-3.56-3.54-6.19-1.39-3.35-2.62-7-3.51-9-.2-.47-.38-.93-.53-1.4-3.16-9.81,4.49-21,14.89-21.34h1a58.32,58.32,0,0,1,8.36,0c7.11.6,13.45,3.23,16.08,11.32a16.28,16.28,0,0,1-.34,11.42c-.09.2-.19.41-.29.65-.86,2-2,5.32-3.24,8.32-1.09,2.61-2.29,5-3.52,6.19.22.91.43,1.91.66,3,1.35,6.55,2.85,16,4.39,27.21l.21,1.54c6.56,48.19,13.74,125.87,13.64,136.74C450.09,272.57,418.53,285.62,417.7,286.85Z" transform="translate(0.02)"/><path class="cls-3" d="M417.7,286.85c-.18,2.14-30.57-14.69-31.29-14.58-3.28-12,5.66-90.87,12.62-139.72a6.58,6.58,0,0,1,.13-.89c1.58-11,3-20.49,4.24-27.21.19-1.06.37-2.06.55-3-1.24-1.15-2.44-3.56-3.54-6.19-1.39-3.35-2.62-7-3.51-9-.2-.47-.38-.93-.53-1.4-3.16-9.81,4.49-21,14.89-21.34h1a58.32,58.32,0,0,1,8.36,0c7.11.6,13.45,3.23,16.08,11.32a16.28,16.28,0,0,1-.34,11.42c-.09.2-.19.41-.29.65-.86,2-2,5.32-3.24,8.32-1.09,2.61-2.29,5-3.52,6.19.22.91.43,1.91.66,3,1.35,6.55,2.85,16,4.39,27.21l.21,1.54c6.56,48.19,13.74,125.87,13.64,136.74C450.09,272.57,418.53,285.62,417.7,286.85Z" transform="translate(0.02)"/></g><path class="cls-3" d="M463.35,59.33a48.16,48.16,0,0,1-22.19,25.26,18.6,18.6,0,0,1-1,3.26V88c-.41.87-1,2.33-1.54,3.88s-1.23,3.28-1.93,4.94a32.17,32.17,0,0,1-2.87,5.64c1.48,6.89,3.14,17.42,4.84,29.92A92.41,92.41,0,0,0,509.3,59.33ZM394.71,91.89c-.57-1.55-1.12-3-1.52-3.86v-.09a18.71,18.71,0,0,1-1.5-5.83,48.11,48.11,0,0,1-18.08-22.78H327.72A92.42,92.42,0,0,0,395,131.6c1.68-11.8,3.26-21.95,4.54-29a32.46,32.46,0,0,1-2.94-5.75C395.94,95.18,395.29,93.43,394.71,91.89Zm38.12,3.39c1.26-3,2.38-6.28,3.24-8.32a48.09,48.09,0,0,1-39.7-2c.15.47.33.93.53,1.4.89,1.92,2.12,5.62,3.51,9,1.1,2.63,2.3,5,3.54,6.19-1.31,6.91-3,17.9-4.92,31.08a93.4,93.4,0,0,0,35.54.65c-1.86-13.69-3.68-25-5.26-31.73A21.73,21.73,0,0,0,432.83,95.28Z" transform="translate(0.02)"/><circle class="cls-3" cx="416.2" cy="26.81" r="26.81"/><rect class="cls-4" x="717.36" y="104.73" width="1.27" height="185.81"/><g class="cls-5"><text class="cls-6" transform="translate(783.28 151.18)">Appui en </text><text class="cls-7" transform="translate(1023.9 151.18)">C</text><text class="cls-6" transform="translate(1065.52 151.18)">omp</text><text class="cls-8" transform="translate(1183.41 151.18)">é</text><text class="cls-9" transform="translate(1215.22 151.18)">t</text><text class="cls-7" transform="translate(1234.14 151.18)">en</text><text class="cls-8" transform="translate(1298.4 151.18)">c</text><text class="cls-7" transform="translate(1328.49 151.18)">e</text><text class="cls-8" transform="translate(783.28 213.68)">e</text><text class="cls-7" transform="translate(815.09 213.68)">t en </text><text class="cls-10" transform="translate(925.94 213.68)">T</text><text class="cls-11" transform="translate(952.07 213.68)">r</text><text class="cls-6" transform="translate(968.09 213.68)">an</text><text class="cls-8" transform="translate(1035.31 213.68)">s</text><text class="cls-11" transform="translate(1059.96 213.68)">f</text><text class="cls-6" transform="translate(1075.69 213.68)">orma</text><text class="cls-7" transform="translate(1211.2 213.68)">t</text><text class="cls-7" transform="translate(1231.59 213.68)">ion</text><text class="cls-6" transform="translate(783.28 276.18)">pour l&apos;Empl</text><text class="cls-12" transform="translate(1060.08 276.18)">o<tspan class="cls-13" x="31.98" y="0">y</tspan></text><text class="cls-6" transform="translate(1120.21 276.18)">abili</text><text class="cls-9" transform="translate(1225.21 276.18)">t</text><text class="cls-7" transform="translate(1244.13 276.18)">é</text></g></svg>