<svg xmlns="http://www.w3.org/2000/svg" viewBox="0 0 1491.62 360.3"><defs><style>.cls-1,.cls-4{fill:#044460;}.cls-2{fill:#e4cc00;}.cls-3{fill:#00b3ab;}.cls-4{opacity:0.5;}.cls-5{font-size:59.12px;font-family:Gilroy-Medium;font-weight:500;}.cls-10,.cls-5{letter-spacing:-0.03em;}.cls-6{letter-spacing:-0.03em;}.cls-7{letter-spacing:-0.04em;}.cls-8{letter-spacing:-0.06em;}.cls-9{letter-spacing:-0.04em;}.cls-11{letter-spacing:-0.1em;}.cls-12{letter-spacing:-0.06em;}.cls-13{letter-spacing:-0.04em;}.cls-14{letter-spacing:-0.06em;}.cls-15{letter-spacing:-0.03em;}.cls-16{letter-spacing:-0.03em;}.cls-17{letter-spacing:-0.05em;}</style></defs><title>Fichier 1</title><g id="Calque_2" data-name="Calque 2"><g id="Calque_1-2" data-name="Calque 1"><path class="cls-1" d="M182.63,108.11V283.44H138.8v-9.66a91.32,91.32,0,1,1,0-156v-9.65ZM138.8,195.77a47.49,47.49,0,1,0-47.48,47.49A47.48,47.48,0,0,0,138.8,195.77Z"/><path class="cls-1" d="M331.49,214h45.64a91.33,91.33,0,1,1,0-36.53H331.49a47.49,47.49,0,1,0,0,36.53Z"/><path class="cls-1" d="M636.93,214H503.6a47.49,47.49,0,0,0,78.1,14.61h51A91.14,91.14,0,1,1,636.93,214Zm-45.64-36.53a47.51,47.51,0,0,0-87.69,0Z"/><path class="cls-2" d="M436.36,86.31c-.09.2-.19.41-.29.65-.86,2-2,5.32-3.24,8.32H400.41c-1.39-3.35-2.62-7-3.51-9-.2-.47-.38-.93-.53-1.4-3.16-9.81,4.49-21,14.89-21.34h9.36c7.11.6,13.45,3.23,16.08,11.32A16.28,16.28,0,0,1,436.36,86.31Z"/><g id="Layer_30" data-name="Layer 30"><path class="cls-3" d="M417.7,286.85c-.18,2.14-30.57-14.69-31.29-14.58-3.28-12,5.66-90.87,12.62-139.72,0-.3.09-.6.13-.89,1.58-11,3-20.49,4.24-27.21.19-1.06.37-2.06.55-3-1.24-1.15-2.44-3.56-3.54-6.19-1.39-3.35-2.62-7-3.51-9-.2-.47-.38-.93-.53-1.4-3.16-9.81,4.49-21,14.89-21.34h1a56.9,56.9,0,0,1,8.36,0c7.11.6,13.45,3.23,16.08,11.32a16.28,16.28,0,0,1-.34,11.42c-.09.2-.19.41-.29.65-.86,2-2,5.32-3.24,8.32-1.09,2.61-2.29,5-3.52,6.19.22.91.43,1.91.66,3,1.35,6.55,2.85,16,4.39,27.21l.21,1.54c6.56,48.19,13.74,125.87,13.64,136.74C450.09,272.57,418.53,285.62,417.7,286.85Z"/><path class="cls-3" d="M417.7,286.85c-.18,2.14-30.57-14.69-31.29-14.58-3.28-12,5.66-90.87,12.62-139.72,0-.3.09-.6.13-.89,1.58-11,3-20.49,4.24-27.21.19-1.06.37-2.06.55-3-1.24-1.15-2.44-3.56-3.54-6.19-1.39-3.35-2.62-7-3.51-9-.2-.47-.38-.93-.53-1.4-3.16-9.81,4.49-21,14.89-21.34h1a56.9,56.9,0,0,1,8.36,0c7.11.6,13.45,3.23,16.08,11.32a16.28,16.28,0,0,1-.34,11.42c-.09.2-.19.41-.29.65-.86,2-2,5.32-3.24,8.32-1.09,2.61-2.29,5-3.52,6.19.22.91.43,1.91.66,3,1.35,6.55,2.85,16,4.39,27.21l.21,1.54c6.56,48.19,13.74,125.87,13.64,136.74C450.09,272.57,418.53,285.62,417.7,286.85Z"/><path class="cls-3" d="M417.7,286.85c-.18,2.14-30.57-14.69-31.29-14.58-3.28-12,5.66-90.87,12.62-139.72,0-.3.09-.6.13-.89,1.58-11,3-20.49,4.24-27.21.19-1.06.37-2.06.55-3-1.24-1.15-2.44-3.56-3.54-6.19-1.39-3.35-2.62-7-3.51-9-.2-.47-.38-.93-.53-1.4-3.16-9.81,4.49-21,14.89-21.34h1a56.9,56.9,0,0,1,8.36,0c7.11.6,13.45,3.23,16.08,11.32a16.28,16.28,0,0,1-.34,11.42c-.09.2-.19.41-.29.65-.86,2-2,5.32-3.24,8.32-1.09,2.61-2.29,5-3.52,6.19.22.91.43,1.91.66,3,1.35,6.55,2.85,16,4.39,27.21l.21,1.54c6.56,48.19,13.74,125.87,13.64,136.74C450.09,272.57,418.53,285.62,417.7,286.85Z"/><path class="cls-3" d="M417.7,286.85c-.18,2.14-30.57-14.69-31.29-14.58-3.28-12,5.66-90.87,12.62-139.72,0-.3.09-.6.13-.89,1.58-11,3-20.49,4.24-27.21.19-1.06.37-2.06.55-3-1.24-1.15-2.44-3.56-3.54-6.19-1.39-3.35-2.62-7-3.51-9-.2-.47-.38-.93-.53-1.4-3.16-9.81,4.49-21,14.89-21.34h1a56.9,56.9,0,0,1,8.36,0c7.11.6,13.45,3.23,16.08,11.32a16.28,16.28,0,0,1-.34,11.42c-.09.2-.19.41-.29.65-.86,2-2,5.32-3.24,8.32-1.09,2.61-2.29,5-3.52,6.19.22.91.43,1.91.66,3,1.35,6.55,2.85,16,4.39,27.21l.21,1.54c6.56,48.19,13.74,125.87,13.64,136.74C450.09,272.57,418.53,285.62,417.7,286.85Z"/><path class="cls-3" d="M417.7,286.85c-.18,2.14-30.57-14.69-31.29-14.58-3.28-12,5.66-90.87,12.62-139.72,0-.3.09-.6.13-.89,1.58-11,3-20.49,4.24-27.21.19-1.06.37-2.06.55-3-1.24-1.15-2.44-3.56-3.54-6.19-1.39-3.35-2.62-7-3.51-9-.2-.47-.38-.93-.53-1.4-3.16-9.81,4.49-21,14.89-21.34h1a56.9,56.9,0,0,1,8.36,0c7.11.6,13.45,3.23,16.08,11.32a16.28,16.28,0,0,1-.34,11.42c-.09.2-.19.41-.29.65-.86,2-2,5.32-3.24,8.32-1.09,2.61-2.29,5-3.52,6.19.22.91.43,1.91.66,3,1.35,6.55,2.85,16,4.39,27.21l.21,1.54c6.56,48.19,13.74,125.87,13.64,136.74C450.09,272.57,418.53,285.62,417.7,286.85Z"/><path class="cls-3" d="M417.7,286.85c-.18,2.14-30.57-14.69-31.29-14.58-3.28-12,5.66-90.87,12.62-139.72,0-.3.09-.6.13-.89,1.58-11,3-20.49,4.24-27.21.19-1.06.37-2.06.55-3-1.24-1.15-2.44-3.56-3.54-6.19-1.39-3.35-2.62-7-3.51-9-.2-.47-.38-.93-.53-1.4-3.16-9.81,4.49-21,14.89-21.34h1a56.9,56.9,0,0,1,8.36,0c7.11.6,13.45,3.23,16.08,11.32a16.28,16.28,0,0,1-.34,11.42c-.09.2-.19.41-.29.65-.86,2-2,5.32-3.24,8.32-1.09,2.61-2.29,5-3.52,6.19.22.91.43,1.91.66,3,1.35,6.55,2.85,16,4.39,27.21l.21,1.54c6.56,48.19,13.74,125.87,13.64,136.74C450.09,272.57,418.53,285.62,417.7,286.85Z"/><path class="cls-3" d="M417.7,286.85c-.18,2.14-30.57-14.69-31.29-14.58-3.28-12,5.66-90.87,12.62-139.72,0-.3.09-.6.13-.89,1.58-11,3-20.49,4.24-27.21.19-1.06.37-2.06.55-3-1.24-1.15-2.44-3.56-3.54-6.19-1.39-3.35-2.62-7-3.51-9-.2-.47-.38-.93-.53-1.4-3.16-9.81,4.49-21,14.89-21.34h1a56.9,56.9,0,0,1,8.36,0c7.11.6,13.45,3.23,16.08,11.32a16.28,16.28,0,0,1-.34,11.42c-.09.2-.19.41-.29.65-.86,2-2,5.32-3.24,8.32-1.09,2.61-2.29,5-3.52,6.19.22.91.43,1.91.66,3,1.35,6.55,2.85,16,4.39,27.21l.21,1.54c6.56,48.19,13.74,125.87,13.64,136.74C450.09,272.57,418.53,285.62,417.7,286.85Z"/><path class="cls-3" d="M417.7,286.85c-.18,2.14-30.57-14.69-31.29-14.58-3.28-12,5.66-90.87,12.62-139.72,0-.3.09-.6.13-.89,1.58-11,3-20.49,4.24-27.21.19-1.06.37-2.06.55-3-1.24-1.15-2.44-3.56-3.54-6.19-1.39-3.35-2.62-7-3.51-9-.2-.47-.38-.93-.53-1.4-3.16-9.81,4.49-21,14.89-21.34h1a56.9,56.9,0,0,1,8.36,0c7.11.6,13.45,3.23,16.08,11.32a16.28,16.28,0,0,1-.34,11.42c-.09.2-.19.41-.29.65-.86,2-2,5.32-3.24,8.32-1.09,2.61-2.29,5-3.52,6.19.22.91.43,1.91.66,3,1.35,6.55,2.85,16,4.39,27.21l.21,1.54c6.56,48.19,13.74,125.87,13.64,136.74C450.09,272.57,418.53,285.62,417.7,286.85Z"/></g><path class="cls-3" d="M463.35,59.33a48.12,48.12,0,0,1-22.19,25.26,18.94,18.94,0,0,1-1,3.26l0,.09,0,.09c-.41.87-1,2.33-1.54,3.88s-1.23,3.28-1.93,4.94a32.61,32.61,0,0,1-2.87,5.64c1.48,6.89,3.14,17.42,4.84,29.92a92.41,92.41,0,0,0,70.64-73.08ZM394.71,91.89c-.57-1.55-1.12-3-1.52-3.86l0-.09a18.85,18.85,0,0,1-1.5-5.83,48.13,48.13,0,0,1-18.08-22.78H327.72A92.42,92.42,0,0,0,395,131.6c1.68-11.8,3.26-21.95,4.54-29a32.31,32.31,0,0,1-2.94-5.75C395.94,95.18,395.29,93.43,394.71,91.89Zm38.12,3.39c1.26-3,2.38-6.28,3.24-8.32a48.12,48.12,0,0,1-39.7-2c.15.47.33.93.53,1.4.89,1.92,2.12,5.62,3.51,9,1.1,2.63,2.3,5,3.54,6.19-1.31,6.91-3,17.9-4.92,31.08a93.23,93.23,0,0,0,35.54.65c-1.86-13.69-3.68-25-5.26-31.73C430.54,100.3,431.74,97.89,432.83,95.28Z"/><circle class="cls-3" cx="416.18" cy="26.81" r="26.81"/><rect class="cls-4" x="717.34" y="104.73" width="1.27" height="185.81"/><text class="cls-5" transform="translate(783.26 151.18)">Appui en <tspan class="cls-6" x="240.62" y="0">C</tspan><tspan x="282.24" y="0">omp</tspan><tspan class="cls-7" x="400.13" y="0">é</tspan><tspan class="cls-8" x="431.94" y="0">t</tspan><tspan x="450.86" y="0">en</tspan><tspan class="cls-9" x="515.12" y="0">c</tspan><tspan x="545.21" y="0">e</tspan><tspan class="cls-7"><tspan x="0" y="62.5">e</tspan><tspan class="cls-10" x="31.81" y="62.5">t en </tspan><tspan class="cls-11" x="142.66" y="62.5">T</tspan><tspan class="cls-12" x="168.79" y="62.5">r</tspan><tspan class="cls-10" x="184.81" y="62.5">an</tspan><tspan class="cls-13" x="252.03" y="62.5">s</tspan><tspan class="cls-14" x="276.68" y="62.5">f</tspan><tspan class="cls-15" x="292.41" y="62.5">orma</tspan><tspan class="cls-16" x="427.92" y="62.5">t</tspan><tspan class="cls-10" x="448.31" y="62.5">ion</tspan></tspan><tspan x="0" y="125">pour l&apos;Empl</tspan><tspan class="cls-17" x="276.8" y="125">oy</tspan><tspan x="336.93" y="125">abili</tspan><tspan class="cls-8" x="441.93" y="125">t</tspan><tspan x="460.85" y="125">é</tspan></text></g></g></svg>