<?xml version="1.0" encoding="UTF-8"?> <svg xmlns="http://www.w3.org/2000/svg" width="440" height="320" viewBox="0 0 440 320" fill="none"><path d="M37.4 243.524C54.83 243.524 67.54 234.514 67.54 213.544C67.54 172.034 18.05 189.754 18.05 160.064C18.05 145.444 29.72 141.594 40.65 141.594C53.8 141.594 58.97 147.204 61.48 147.204C63.4 147.204 64.88 144.394 64.88 142.924C64.88 138.494 52.47 134.504 40.8 134.504C27.95 134.504 10.66 139.234 10.66 160.654C10.66 197.144 60.15 178.824 60.15 214.274C60.15 228.904 51.73 236.434 36.66 236.434C17.46 236.434 14.8 224.024 11.4 224.024C9.92 224.024 8 226.244 8 228.164C8 232.884 18.49 243.524 37.4 243.524Z" fill="#165B34"></path><path d="M109.04 243.524C122.19 243.524 130.31 237.614 130.31 234.514C130.31 233.034 128.68 230.964 126.91 230.964C123.81 230.964 121.45 236.874 109.33 236.874C95.5901 236.874 85.5501 229.044 85.5501 216.334V210.134H119.82C126.17 210.134 132.38 209.834 132.38 198.764C132.38 183.254 119.82 172.024 105.49 172.024C90.5701 172.024 78.3101 184.134 78.3101 198.614V216.194C78.3201 232.594 91.0201 243.524 109.04 243.524ZM85.5601 198.024C85.5601 187.534 94.2801 178.524 105.5 178.524C117.32 178.524 125.3 188.714 125.3 198.764C125.3 203.194 123.67 204.084 117.03 204.084H85.5601V198.024Z" fill="#165B34"></path><path d="M167.69 304.074C154.69 304.074 150.26 297.424 147.45 297.424C145.82 297.424 144.5 299.494 144.5 301.114C144.5 306.134 155.87 310.864 167.4 310.864C182.43 310.864 190.47 302.994 193.66 292.284H186.46C184.23 299.104 179.12 304.074 167.69 304.074Z" fill="#165B34"></path><path d="M195.31 175.864C195.31 174.084 193.83 172.904 191.77 172.904C189.85 172.904 188.22 174.084 188.22 175.864V183.254C184.97 177.494 178.17 172.024 168.42 172.024C153.94 172.024 141.83 184.134 141.83 199.054V216.044C141.83 230.374 154.09 243.374 168.13 243.374C176.99 243.374 184.82 238.204 188.07 232.144V252.494H195.31V175.864ZM188.07 221.064C188.07 225.794 179.8 236.574 168.72 236.574C158.23 236.574 149.07 226.534 149.07 216.044V199.054C149.07 188.864 158.08 178.814 168.87 178.814C178.47 178.814 188.07 186.344 188.07 199.054V221.064Z" fill="#165B34"></path><path d="M227.36 243.524C237.11 243.524 244.49 238.064 249.52 232.304V239.394C249.52 241.164 251.14 242.644 253.07 242.644C255.14 242.644 256.61 241.164 256.61 239.394V200.394C256.61 185.774 249.96 172.034 231.05 172.034C221.89 172.034 212 175.584 212 178.834C212 180.304 213.18 182.824 215.25 182.824C217.32 182.824 221.31 178.684 230.76 178.684C244.2 178.684 249.38 190.064 249.38 200.404V204.244H241.4C220.87 204.244 206.98 208.234 206.98 224.034C206.98 237.314 215.99 243.524 227.36 243.524ZM242.14 210.134H249.38V221.064C249.38 227.564 238.74 237.024 228.4 237.024C220.42 237.024 214.22 232.884 214.22 223.724C214.22 211.474 227.66 210.134 242.14 210.134Z" fill="#165B34"></path><path d="M277.29 242.634C279.36 242.634 280.98 241.014 280.98 239.384V132.584C280.98 130.804 279.36 129.484 277.29 129.484C275.22 129.484 273.74 130.814 273.74 132.584V239.394C273.74 241.014 275.22 242.634 277.29 242.634Z" fill="#165B34"></path><path d="M8.68994 257.474C8.68994 256.744 9.32994 256.404 9.96994 256.404H25.0999C25.8299 256.404 26.1699 257.044 26.1699 257.644C26.1699 258.374 25.7799 259.014 25.0999 259.014H11.5099V270.774H18.2599C18.8999 270.774 19.2899 271.374 19.2899 272.054C19.2899 272.614 18.9899 273.214 18.2599 273.214H11.5099V286.594C11.5099 287.324 10.7799 287.664 10.0999 287.664C9.36995 287.664 8.68994 287.324 8.68994 286.594V257.474Z" fill="#165B34"></path><path d="M36.4298 275.424V286.534C36.4298 287.174 35.8698 287.644 35.0598 287.644C34.3298 287.644 33.7798 287.174 33.7798 286.534V284.654C32.2798 286.364 30.1898 287.944 27.3198 287.944C24.0698 287.944 21.5098 286.144 21.5098 282.304C21.5098 277.644 25.5298 276.444 31.4698 276.444H33.6498V275.414C33.6498 272.674 32.2798 269.604 28.6098 269.604C25.7498 269.604 24.7198 270.844 24.0398 270.844C23.3098 270.844 22.9298 269.994 22.9298 269.344C22.9298 268.234 25.9698 267.164 28.6998 267.164C34.4198 267.174 36.4298 271.144 36.4298 275.424ZM33.6498 278.374H31.8498C27.9198 278.374 24.2798 278.764 24.2798 282.054C24.2798 284.534 25.8998 285.604 27.9998 285.604C30.7398 285.604 33.6398 283.044 33.6398 281.114V278.374H33.6498Z" fill="#165B34"></path><path d="M53.4898 275.034C53.4898 271.954 51.2698 269.734 48.6198 269.734C46.1398 269.734 43.5798 271.704 43.5798 275.164V286.534C43.5798 287.094 42.9398 287.644 42.1698 287.644C41.3998 287.644 40.7998 287.084 40.7998 286.534V268.454C40.7998 267.854 41.3998 267.424 42.1698 267.424C42.8998 267.424 43.4998 267.854 43.4998 268.454V270.424C44.4398 268.754 46.3598 267.174 49.1898 267.174C52.0098 267.174 54.2298 268.924 55.2598 271.444C56.7598 268.534 59.2798 267.174 61.7598 267.174C65.4398 267.174 68.9398 270.084 68.9398 275.164V286.534C68.9398 287.094 68.3398 287.644 67.5298 287.644C66.7998 287.644 66.1598 287.084 66.1598 286.534V275.164C66.1598 271.574 63.6398 269.734 61.2898 269.734C58.8098 269.734 56.2898 271.784 56.2898 274.994V286.574C56.2898 287.344 55.5598 287.644 54.8798 287.644C54.2398 287.644 53.5098 287.344 53.5098 286.574V275.034H53.4898Z" fill="#165B34"></path><path d="M76.4797 259.654C76.4797 260.594 75.6697 261.454 74.6397 261.454C73.5697 261.454 72.7197 260.604 72.7197 259.654C72.7197 258.704 73.5697 257.904 74.6397 257.904C75.6697 257.894 76.4797 258.704 76.4797 259.654ZM76.0497 268.454V286.534C76.0497 287.094 75.4097 287.644 74.6397 287.644C73.8697 287.644 73.2697 287.084 73.2697 286.534V268.454C73.2697 267.854 73.8697 267.424 74.6397 267.424C75.4097 267.434 76.0497 267.854 76.0497 268.454Z" fill="#165B34"></path><path d="M83.7102 256.054V286.534C83.7102 287.094 83.1102 287.644 82.3002 287.644C81.5302 287.644 80.9302 287.084 80.9302 286.534V256.054C80.9302 255.454 81.5302 255.024 82.3002 255.024C83.1102 255.034 83.7102 255.464 83.7102 256.054Z" fill="#165B34"></path><path d="M86.61 268.884C86.52 268.754 86.48 268.624 86.48 268.494C86.48 267.764 87.46 267.174 88.19 267.174C88.62 267.174 89.05 267.344 89.17 267.774L95.03 283.504L100.54 267.774C100.71 267.344 101.1 267.174 101.48 267.174C102.16 267.174 103.19 267.734 103.19 268.544C103.19 268.634 103.19 268.804 103.1 268.884L96.47 286.834C94.76 291.454 92.62 297.564 87.79 297.564C87.06 297.564 86.51 297.264 86.51 296.324C86.51 295.684 86.72 295.044 87.36 295.044C90.05 295.044 92.49 291.244 93.56 286.794L86.61 268.884Z" fill="#165B34"></path><path d="M113.92 257.474C113.92 256.744 114.56 256.404 115.2 256.404H130.33C131.06 256.404 131.4 257.044 131.4 257.644C131.4 258.374 131.01 259.014 130.33 259.014H116.74V270.774H123.49C124.13 270.774 124.52 271.374 124.52 272.054C124.52 272.614 124.22 273.214 123.49 273.214H116.74V286.594C116.74 287.324 116.01 287.664 115.33 287.664C114.6 287.664 113.92 287.324 113.92 286.594V257.474Z" fill="#165B34"></path><path d="M144.45 275.164V279.824C144.45 284.054 140.65 287.944 136.28 287.944C131.96 287.944 128.2 284.094 128.2 279.824V275.164C128.2 270.884 131.83 267.174 136.28 267.174C140.64 267.174 144.45 270.764 144.45 275.164ZM141.67 275.164C141.67 272.424 139.28 269.734 136.28 269.734C133.29 269.734 130.98 272.424 130.98 275.164V279.824C130.98 282.684 133.33 285.384 136.28 285.384C139.27 285.384 141.67 282.694 141.67 279.824V275.164Z" fill="#165B34"></path><path d="M147.95 279.914V268.504C147.95 267.994 148.55 267.434 149.36 267.434C150.09 267.434 150.73 267.994 150.73 268.504V279.914C150.73 282.694 153.08 285.384 156.07 285.384C159.02 285.384 161.41 282.734 161.41 279.914V268.454C161.41 267.894 162.05 267.424 162.82 267.424C163.59 267.424 164.19 267.894 164.19 268.454V279.914C164.19 284.194 160.47 287.954 156.07 287.954C151.58 287.954 147.95 284.144 147.95 279.914Z" fill="#165B34"></path><path d="M171.29 286.534C171.29 287.094 170.65 287.644 169.88 287.644C169.07 287.644 168.51 287.084 168.51 286.534V268.454C168.51 267.854 169.07 267.424 169.88 267.424C170.56 267.424 171.16 267.854 171.16 268.454V270.424C172.06 268.754 174.02 267.174 176.89 267.174C180.99 267.174 184.5 270.764 184.5 275.164V286.534C184.5 287.264 183.77 287.644 183.09 287.644C182.45 287.644 181.72 287.254 181.72 286.534V275.164C181.72 272.424 179.33 269.734 176.38 269.734C173.86 269.734 171.29 271.744 171.29 275.164V286.534Z" fill="#165B34"></path><path d="M204.16 256.054V286.534C204.16 287.094 203.6 287.644 202.83 287.644C202.1 287.644 201.5 287.084 201.5 286.534V284.654C200.56 286.404 198.29 287.944 195.64 287.944C191.58 287.944 188.07 284.054 188.07 279.824V275.164C188.07 270.764 191.53 267.174 195.72 267.174C198.54 267.174 200.46 268.754 201.36 270.424V256.054C201.36 255.454 202 255.024 202.81 255.024C203.6 255.034 204.16 255.464 204.16 256.054ZM190.86 279.824C190.86 282.644 193.3 285.384 196.16 285.384C199.15 285.384 201.38 282.434 201.38 281.154V275.174C201.38 271.754 198.77 269.744 196.21 269.744C193.26 269.744 190.87 272.434 190.87 275.174V279.824H190.86Z" fill="#165B34"></path><path d="M222.2 275.424V286.534C222.2 287.174 221.64 287.644 220.83 287.644C220.1 287.644 219.55 287.174 219.55 286.534V284.654C218.05 286.364 215.96 287.944 213.09 287.944C209.84 287.944 207.28 286.144 207.28 282.304C207.28 277.644 211.3 276.444 217.24 276.444H219.42V275.414C219.42 272.674 218.05 269.604 214.37 269.604C211.51 269.604 210.48 270.844 209.8 270.844C209.07 270.844 208.69 269.994 208.69 269.344C208.69 268.234 211.72 267.164 214.46 267.164C220.19 267.174 222.2 271.144 222.2 275.424ZM219.42 278.374H217.62C213.69 278.374 210.05 278.764 210.05 282.054C210.05 284.534 211.67 285.604 213.77 285.604C216.51 285.604 219.41 283.044 219.41 281.114V278.374H219.42Z" fill="#165B34"></path><path d="M229.25 281.364C229.25 284.144 230.28 285.124 233.23 285.124H234.43C235.2 285.124 235.71 285.724 235.71 286.364C235.71 287.044 235.2 287.644 234.43 287.644H233.23C228.83 287.644 226.48 285.764 226.48 281.364V258.834C226.48 258.234 227.21 257.804 227.85 257.804C228.53 257.804 229.26 258.234 229.26 258.834V267.424H234.77C235.33 267.424 235.75 267.984 235.75 268.574C235.75 269.164 235.32 269.724 234.77 269.724H229.26V281.364H229.25Z" fill="#165B34"></path><path d="M241.6 259.654C241.6 260.594 240.79 261.454 239.76 261.454C238.69 261.454 237.84 260.604 237.84 259.654C237.84 258.704 238.69 257.904 239.76 257.904C240.79 257.894 241.6 258.704 241.6 259.654ZM241.17 268.454V286.534C241.17 287.094 240.53 287.644 239.76 287.644C238.99 287.644 238.39 287.084 238.39 286.534V268.454C238.39 267.854 238.99 267.424 239.76 267.424C240.53 267.434 241.17 267.854 241.17 268.454Z" fill="#165B34"></path><path d="M261.14 275.164V279.824C261.14 284.054 257.34 287.944 252.98 287.944C248.66 287.944 244.9 284.094 244.9 279.824V275.164C244.9 270.884 248.53 267.174 252.98 267.174C257.33 267.174 261.14 270.764 261.14 275.164ZM258.36 275.164C258.36 272.424 255.97 269.734 252.97 269.734C249.98 269.734 247.67 272.424 247.67 275.164V279.824C247.67 282.684 250.02 285.384 252.97 285.384C255.96 285.384 258.36 282.694 258.36 279.824V275.164Z" fill="#165B34"></path><path d="M267.63 286.534C267.63 287.094 266.99 287.644 266.22 287.644C265.41 287.644 264.85 287.084 264.85 286.534V268.454C264.85 267.854 265.41 267.424 266.22 267.424C266.9 267.424 267.5 267.854 267.5 268.454V270.424C268.4 268.754 270.36 267.174 273.23 267.174C277.33 267.174 280.84 270.764 280.84 275.164V286.534C280.84 287.264 280.11 287.644 279.43 287.644C278.79 287.644 278.06 287.254 278.06 286.534V275.164C278.06 272.424 275.67 269.734 272.72 269.734C270.2 269.734 267.63 271.744 267.63 275.164V286.534Z" fill="#165B34"></path><path d="M371.26 136.284L370.55 134.734C387.87 126.734 409.19 130.914 410.08 131.104L409.74 132.774C409.52 132.734 388.06 128.524 371.26 136.284Z" fill="#318F63"></path><path d="M371.12 135.374L369.52 134.774C379.01 109.584 400.94 87.8144 401.15 87.5944L402.35 88.8144C402.14 89.0244 380.47 110.544 371.12 135.374Z" fill="#318F63"></path><path d="M371.15 136.094L369.66 135.274C383.6 109.864 424.27 97.7644 424.68 97.6444L425.16 99.2844C424.75 99.4044 384.74 111.304 371.15 136.094Z" fill="#318F63"></path><path d="M369.55 135.464C325.79 75.4544 262.04 85.8644 223.95 92.0744C220.08 92.7044 216.51 93.2844 213.29 93.7344L213.05 92.0444C216.26 91.5944 219.81 91.0144 223.67 90.3844C262.15 84.1144 326.55 73.6044 370.92 134.454L369.55 135.464Z" fill="#318F63"></path><path d="M376.21 200.364C365.71 157.924 369.49 138.814 369.65 138.024L371.32 138.374C371.28 138.564 367.47 157.974 377.86 199.954L376.21 200.364Z" fill="#318F63"></path><path d="M373.62 200.774C374.06 202.674 375.96 203.854 377.85 203.414C379.75 202.974 380.93 201.074 380.49 199.184C380.05 197.284 378.15 196.104 376.26 196.544C374.37 196.984 373.18 198.874 373.62 200.774Z" fill="#318F63"></path><path d="M369.39 135.384C363.54 86.3744 376.19 52.3944 376.32 52.0644L377.91 52.6744C377.78 53.0044 365.28 86.6244 371.08 135.194L369.39 135.384Z" fill="#318F63"></path><path d="M370.57 137.054L370.05 136.524C361.1 127.464 327.05 99.3144 264.41 117.494L263.93 115.854C270.65 113.904 288.5 109.434 309.1 110.194C334.52 111.114 355.26 119.404 370.75 134.814C373.87 132.744 388.54 124.064 412.86 125.314L412.77 127.014C386.44 125.624 371.3 136.494 371.15 136.604L370.57 137.054Z" fill="#318F63"></path><path d="M265.39 120.014C263.53 120.584 261.55 119.534 260.98 117.674C260.41 115.814 261.46 113.834 263.32 113.264C265.18 112.694 267.16 113.744 267.73 115.604C268.3 117.474 267.25 119.444 265.39 120.014Z" fill="#318F63"></path><path d="M412.53 129.824C414.48 129.884 416.11 128.354 416.17 126.414C416.23 124.464 414.7 122.834 412.76 122.774C410.82 122.714 409.18 124.244 409.12 126.184C409.06 128.134 410.59 129.764 412.53 129.824Z" fill="#318F63"></path><path d="M338.18 249.904L336.48 249.754C342.42 183.404 364.2 142.404 368.53 134.824C349.54 135.634 311.84 182.494 304.32 192.084L302.98 191.034C313.95 177.044 351.22 131.534 370.08 133.154L371.47 133.274L370.73 134.454C370.47 134.874 344.71 176.944 338.18 249.904Z" fill="#A6C9AC"></path><path d="M306.55 193.634C305.34 195.154 303.12 195.414 301.59 194.204C300.06 192.994 299.81 190.774 301.02 189.244C302.23 187.724 304.45 187.464 305.98 188.674C307.51 189.894 307.77 192.114 306.55 193.634Z" fill="#A6C9AC"></path><path d="M394.78 186.114C390.4 181.234 375.58 163.084 368.56 134.674L370.22 134.264C377.15 162.294 391.75 180.164 396.05 184.974L394.78 186.114Z" fill="#318F63"></path><path d="M397.86 182.954C399.21 184.364 399.16 186.594 397.75 187.944C396.34 189.294 394.11 189.244 392.76 187.834C391.41 186.424 391.46 184.194 392.87 182.844C394.27 181.494 396.51 181.544 397.86 182.954Z" fill="#318F63"></path><path d="M370.2 136.024C367.25 105.794 390.97 77.8744 391.21 77.5944L392.5 78.7044C392.27 78.9744 369.02 106.364 371.89 135.854L370.2 136.024Z" fill="#318F63"></path><path d="M328.97 251.774L327.28 251.564C327.39 250.704 338.13 165.274 369.42 135.384L370.6 136.614C339.74 166.084 329.07 250.924 328.97 251.774Z" fill="#318F63"></path><path d="M367.43 222.694C359.76 171.894 369.37 136.054 369.47 135.704L371.11 136.154C371.01 136.504 361.5 172.024 369.12 222.444L367.43 222.694Z" fill="#318F63"></path><path d="M308.8 174.944L307.66 173.674C309.34 172.164 349.04 136.614 370.83 135.884L370.89 137.584C349.71 138.294 309.2 174.574 308.8 174.944Z" fill="#318F63"></path><path d="M370.74 136.324L369.48 135.174C383.43 119.894 398.48 113.284 408.65 110.434C419.7 107.334 427.33 107.854 427.66 107.874L427.53 109.574C427.23 109.564 396.86 107.714 370.74 136.324Z" fill="#318F63"></path><path d="M313.83 225.414L312.21 224.884C312.39 224.334 330.41 169.854 370.65 135.104L371.77 136.394C331.89 170.834 314 224.874 313.83 225.414Z" fill="#318F63"></path><path d="M396.92 173.184C395.93 172.544 372.52 157.224 370.06 136.774C365.28 97.1144 384.7 69.4644 384.9 69.1844L386.29 70.1744C386.1 70.4444 367.06 97.5944 371.76 136.564C374.12 156.214 397.61 171.594 397.85 171.744L396.92 173.184Z" fill="#A6C9AC"></path><path d="M306.8 165.964C306.71 165.964 306.63 165.954 306.54 165.924L306.75 165.094L306.63 164.264C307.1 164.104 309.38 162.514 311.8 160.834C323.96 152.354 352.45 132.494 370.62 135.404L370.35 137.094C352.86 134.254 324.77 153.874 312.78 162.244C308.29 165.364 307.39 165.964 306.8 165.964Z" fill="#318F63"></path><path d="M369.7 138.514C332.22 44.0444 295.72 19.4344 285.43 14.1344L286.21 12.6144C296.64 17.9744 333.59 42.8644 371.29 137.874L369.7 138.514Z" fill="#318F63"></path><path d="M284.42 16.7144C282.66 15.8744 281.91 13.7744 282.75 12.0144C283.59 10.2544 285.69 9.50438 287.45 10.3444C289.21 11.1844 289.96 13.2844 289.12 15.0444C288.29 16.8044 286.18 17.5544 284.42 16.7144Z" fill="#318F63"></path><path d="M370.83 139.694C324.43 48.6944 228.43 39.6544 227.47 39.5744L227.61 37.8744C228.58 37.9544 325.52 47.0844 372.35 138.914L370.83 139.694Z" fill="#A6C9AC"></path><path d="M370.19 137.264C279.37 24.3644 240.25 30.6644 239.88 30.7244L239.53 29.0544C241.13 28.7244 279.78 22.1544 371.52 136.194L370.19 137.264Z" fill="#318F63"></path><path d="M370.14 139.874L354.18 53.6244L355.86 53.3144L370.57 132.764C379.19 110.174 407.54 95.7044 408.8 95.0744L409.57 96.5944C409.25 96.7544 377.97 112.724 371.16 136.394L370.14 139.874Z" fill="#318F63"></path><path d="M315.31 142.874L314.69 141.284C324.94 137.264 350.96 128.694 371.14 135.924L370.57 137.534C350.38 130.304 323.17 139.794 315.31 142.874Z" fill="#318F63"></path><path d="M316.49 145.334C314.68 146.054 312.63 145.164 311.91 143.354C311.19 141.544 312.08 139.494 313.89 138.774C315.7 138.054 317.75 138.944 318.47 140.754C319.19 142.564 318.3 144.614 316.49 145.334Z" fill="#318F63"></path><path d="M335.72 204.984L334.08 204.504C338.17 190.524 352.85 144.144 369.82 134.534L370.66 136.014C354.25 145.314 339.76 191.154 335.72 204.984Z" fill="#318F63"></path><path d="M338.37 205.584C337.81 207.454 335.85 208.514 333.98 207.954C332.11 207.394 331.05 205.434 331.61 203.564C332.17 201.694 334.13 200.634 336 201.194C337.86 201.754 338.93 203.724 338.37 205.584Z" fill="#318F63"></path><path d="M371.51 144.354C363.35 117.684 318.21 85.6544 304.57 76.4744L305.52 75.0644C319.28 84.3244 364.82 116.654 373.15 143.854L371.51 144.354Z" fill="#318F63"></path><path d="M303.18 78.8244C301.57 77.7244 301.16 75.5344 302.26 73.9244C303.36 72.3144 305.55 71.9044 307.16 73.0044C308.77 74.1044 309.18 76.2944 308.08 77.9044C306.98 79.5044 304.79 79.9144 303.18 78.8244Z" fill="#318F63"></path><path d="M369.31 136.614C346.19 88.2044 261.03 71.4244 260.17 71.2544L260.49 69.5744C261.36 69.7444 347.36 86.6844 370.85 135.874L369.31 136.614Z" fill="#318F63"></path><path d="M325.11 175.734L323.86 174.574C330.59 167.304 353.77 142.994 369.74 135.164L370.49 136.694C354.78 144.394 331.78 168.524 325.11 175.734Z" fill="#318F63"></path><path d="M327.21 177.434C325.89 178.864 323.65 178.954 322.23 177.624C320.8 176.304 320.71 174.064 322.04 172.644C323.36 171.214 325.6 171.124 327.02 172.454C328.45 173.764 328.53 176.004 327.21 177.434Z" fill="#318F63"></path><path d="M297.21 146.324L296.4 144.824C296.75 144.634 332.1 125.994 368.47 134.434L368.08 136.094C332.33 127.784 297.56 146.134 297.21 146.324Z" fill="#A6C9AC"></path><path d="M394.11 160.374C393.18 159.714 371.33 144.234 369.28 135.204L370.94 134.824C372.85 143.214 394.87 158.824 395.09 158.974L394.11 160.374Z" fill="#318F63"></path><path d="M394.72 151.874C394.18 151.754 381.26 148.814 369.3 135.964L370.55 134.804C382.12 147.244 394.95 150.184 395.08 150.214L394.72 151.874Z" fill="#318F63"></path><path d="M397.99 144.904C397.85 144.814 384.15 135.644 370.13 135.874L370.09 134.174C384.65 133.784 398.38 143.104 398.95 143.494L397.99 144.904Z" fill="#318F63"></path><path d="M394.21 163.714C393.16 163.164 368.46 150.074 369.63 136.584L371.33 136.734C370.26 149.104 394.76 162.084 395.01 162.204L394.21 163.714Z" fill="#318F63"></path><path d="M369.39 139.844L368.91 136.864C368.86 136.554 363.75 105.684 346.74 75.6344C331.1 48.0044 301.88 15.4544 251.52 17.1144L251.46 15.4144C302.77 13.7044 332.38 46.7744 348.25 74.8344C362.58 100.164 368.53 126.074 370.13 134.084C374.17 126.724 389.5 103.704 428.18 92.2444L428.67 93.8744C404.96 100.904 390.42 112.264 382.4 120.564C373.71 129.554 370.58 136.974 370.55 137.054L369.39 139.844Z" fill="#A6C9AC"></path><path d="M427.24 89.8144C429.1 89.2444 431.08 90.2944 431.65 92.1544C432.22 94.0144 431.17 95.9944 429.31 96.5644C427.45 97.1344 425.47 96.0844 424.9 94.2244C424.33 92.3644 425.38 90.3844 427.24 89.8144Z" fill="#A6C9AC"></path><path d="M369.54 136.034C358.8 112.044 331.6 95.8544 288.69 87.9344C254.53 81.6244 220.61 82.7344 211.03 83.2344L210.94 81.5344C233.14 80.3944 345.25 77.6144 371.1 135.344L369.54 136.034Z" fill="#185C34"></path><path d="M211.37 85.9044C209.42 86.0144 207.76 84.5144 207.66 82.5744C207.55 80.6344 209.05 78.9644 210.99 78.8644C212.93 78.7544 214.6 80.2544 214.7 82.1944C214.8 84.1344 213.31 85.8044 211.37 85.9044Z" fill="#185C34"></path><path d="M369.12 135.734C322.57 101.874 274.09 121.554 273.6 121.754L272.94 120.184C273.43 119.974 322.77 99.9144 370.12 134.364L369.12 135.734Z" fill="#185C34"></path><path d="M397.56 181.584C397.4 181.444 381.24 167.464 369.51 138.134L371.09 137.504C382.65 166.414 398.51 180.154 398.67 180.294L397.56 181.584Z" fill="#185C34"></path><path d="M356.61 239.864L354.9 239.854C355.01 218.234 356.43 146.854 369.87 136.374L370.92 137.714C357.76 147.994 356.69 224.604 356.61 239.864Z" fill="#185C34"></path><path d="M359.32 239.714C359.3 241.664 357.7 243.224 355.75 243.204C353.8 243.184 352.24 241.584 352.26 239.634C352.28 237.684 353.88 236.124 355.83 236.144C357.78 236.164 359.34 237.764 359.32 239.714Z" fill="#185C34"></path><path d="M369.22 135.544C324.68 88.3444 285.25 68.8744 260.02 60.8444C232.7 52.1544 215.69 54.6444 215.52 54.6744L215.26 52.9844C215.94 52.8744 284.58 43.3544 370.47 134.364L369.22 135.544Z" fill="#185C34"></path><path d="M379.93 178.164C379.47 176.934 368.58 147.974 369.47 136.414C371.19 113.934 384.55 97.6444 388.61 93.1944L389.87 94.3444C385.91 98.7044 372.86 114.614 371.17 136.554C370.31 147.734 381.41 177.274 381.52 177.574L379.93 178.164Z" fill="#185C34"></path><path d="M386.62 91.4244C388 90.0444 390.23 90.0444 391.61 91.4244C392.99 92.8044 392.99 95.0344 391.61 96.4144C390.23 97.7944 388 97.7944 386.62 96.4144C385.25 95.0344 385.25 92.8044 386.62 91.4244Z" fill="#185C34"></path><path d="M342.64 152.884L341.6 151.534C342.41 150.914 361.47 136.394 370.8 134.024L371.22 135.674C362.23 137.954 342.84 152.734 342.64 152.884Z" fill="#185C34"></path><path d="M310.08 208.984L308.59 208.144C308.83 207.724 332.67 165.664 369.22 136.064L370.29 137.394C334 166.784 310.31 208.564 310.08 208.984Z" fill="#185C34"></path><path d="M368.99 135.234C353.84 99.8044 327.73 52.8944 289.4 30.6644C266.53 17.4044 249.92 19.2844 249.76 19.3044L249.55 17.6144C250.24 17.5244 266.78 15.6144 290.12 29.1044C311.54 41.4844 342.89 69.8244 370.57 134.554L368.99 135.234Z" fill="#185C34"></path><path d="M396.83 149.084C388.13 143.574 373.28 135.284 370.5 136.464L369.83 134.894C374.25 132.994 393.86 145.184 397.74 147.644L396.83 149.084Z" fill="#185C34"></path><path d="M304.63 156.444L303.5 155.174C303.77 154.934 331.02 131.094 369.5 134.964L369.33 136.664C331.61 132.864 304.9 156.214 304.63 156.444Z" fill="#EDC31B"></path><path d="M322.02 247.104L320.32 246.934C326.34 186.234 363.36 142.124 368.96 135.764C363.48 132.654 332.84 117.014 295.19 132.414L294.55 130.834C336.79 113.564 370.42 134.634 370.75 134.844L371.61 135.394L370.91 136.144C370.49 136.604 328.45 182.334 322.02 247.104Z" fill="#EDC31B"></path><path d="M369.6 134.094L367.89 132.404C367.33 131.854 311.19 77.8844 226.78 114.294L226.1 112.724C270.76 93.4544 307.24 99.4844 329.99 107.944C349.8 115.304 362.92 125.744 367.38 129.644L356.37 31.0844L358.06 30.8944L369.6 134.094Z" fill="#EDC31B"></path><path d="M369.81 135.534C369.28 134.384 315.69 20.6344 238.72 35.5444L238.4 33.8644C316.69 18.7044 370.82 133.654 371.36 134.814L369.81 135.534Z" fill="#EDC31B"></path><path d="M239.4 38.2344C237.49 38.5944 235.64 37.3344 235.28 35.4144C234.92 33.4944 236.18 31.6544 238.1 31.2944C240.01 30.9344 241.86 32.1944 242.22 34.1144C242.57 36.0344 241.31 37.8744 239.4 38.2344Z" fill="#EDC31B"></path><path d="M371.68 135.674L370.09 135.054C381.61 105.414 405.62 93.7044 405.86 93.5944L406.59 95.1344C406.36 95.2444 382.94 106.684 371.68 135.674Z" fill="#EDC31B"></path><path d="M370.33 137.384L368.46 131.144C367.35 127.274 339.91 37.5144 212.23 60.2044L211.93 58.5244C324.9 38.4644 360.37 105.634 368.25 125.434L365.33 32.1644L367.03 32.1144L370.33 137.384Z" fill="#EDC31B"></path><path d="M362.65 32.4244C362.59 30.4744 364.12 28.8444 366.07 28.7844C368.02 28.7244 369.65 30.2544 369.71 32.2044C369.77 34.1544 368.24 35.7844 366.29 35.8444C364.34 35.9044 362.71 34.3744 362.65 32.4244Z" fill="#EDC31B"></path><path d="M369.35 136.284C338.69 85.7744 218.92 101.664 217.71 101.834L217.48 100.144C218.7 99.9744 339.57 83.9444 370.81 135.394L369.35 136.284Z" fill="#EDC31B"></path><path d="M370.93 136.344L369.87 135.014C400.2 110.754 425.57 112.654 425.83 112.674L425.68 114.374C425.43 114.354 400.69 112.544 370.93 136.344Z" fill="#EDC31B"></path><path d="M369.45 134.984C361.39 106.554 331.56 71.7344 285.47 36.9444C284.36 36.1044 283.64 35.5644 283.37 35.3344L284.47 34.0344C284.73 34.2544 285.43 34.7844 286.5 35.5844C332.89 70.5944 362.93 105.734 371.09 134.514L369.45 134.984Z" fill="#EDC31B"></path><path d="M373.38 215.744C373.24 215.334 359.8 174.274 369.33 135.804L370.99 136.214C361.58 174.214 374.87 214.804 375 215.204L373.38 215.744Z" fill="#EDC31B"></path><path d="M368.76 137.824C355.65 77.5244 335.95 47.3144 330.22 39.4944L331.6 38.4844C337.38 46.3744 357.25 76.8344 370.43 137.464L368.76 137.824Z" fill="#EDC31B"></path><path d="M328.11 41.2844C326.96 39.7144 327.29 37.5044 328.86 36.3544C330.43 35.2044 332.64 35.5344 333.79 37.1044C334.94 38.6744 334.61 40.8844 333.04 42.0344C331.47 43.1844 329.26 42.8544 328.11 41.2844Z" fill="#EDC31B"></path></svg> 